<?xml version="1.0" standalone="no"?>
<!DOCTYPE svg PUBLIC "-//W3C//DTD SVG 20010904//EN"
 "http://www.w3.org/TR/2001/REC-SVG-20010904/DTD/svg10.dtd">
<svg version="1.0" xmlns="http://www.w3.org/2000/svg"
 width="1024.000000pt" height="1024.000000pt" viewBox="0 0 1024.000000 1024.000000"
 preserveAspectRatio="xMidYMid meet">

<g transform="translate(0.000000,1024.000000) scale(0.100000,-0.100000)"
fill="#000000" stroke="none">
<path d="M1447 9029 c-101 -24 -195 -97 -244 -191 l-28 -53 -3 -889 c-3 -995
-6 -952 68 -1044 46 -59 106 -102 175 -128 49 -18 98 -20 507 -24 l57 0 3
-542 3 -543 31 -65 c39 -81 109 -151 194 -193 l65 -32 942 -5 943 -5 -111
-110 c-114 -113 -139 -147 -139 -187 0 -40 36 -86 74 -97 70 -19 90 -5 307
214 111 113 211 217 221 232 10 17 18 46 18 73 l0 45 -227 227 c-147 146 -238
229 -255 233 -63 16 -138 -36 -138 -95 0 -47 13 -66 128 -182 l107 -108 -920
0 c-882 0 -921 1 -951 19 -65 39 -64 34 -64 605 l0 516 483 0 c265 0 521 4
569 10 144 15 250 86 310 208 22 46 23 56 28 422 l5 375 275 0 c271 0 276 0
313 -23 20 -13 50 -40 65 -60 l27 -35 5 -731 c5 -702 6 -733 25 -771 11 -24
136 -158 310 -333 159 -162 294 -300 298 -309 21 -35 -12 -75 -302 -368 -229
-231 -301 -309 -312 -340 -12 -33 -14 -174 -14 -795 0 -706 1 -759 19 -823 43
-159 178 -290 341 -333 37 -10 133 -14 361 -14 l311 0 7 -83 c22 -270 121
-545 284 -792 92 -139 308 -354 455 -453 514 -344 1145 -391 1697 -126 511
245 832 652 952 1204 19 92 22 134 23 335 0 204 -3 242 -23 338 -47 219 -130
421 -245 595 -83 126 -110 158 -220 270 -397 404 -957 581 -1528 483 -642
-110 -1189 -612 -1348 -1239 -17 -66 -50 -257 -51 -295 0 -4 -143 -7 -317 -5
-304 3 -320 4 -358 25 -22 11 -52 34 -67 50 -60 63 -58 34 -58 844 l0 742 278
281 c313 317 332 344 340 462 8 127 -4 143 -334 475 l-284 285 0 705 c0 789 3
758 -72 869 -47 72 -130 138 -216 172 -54 21 -72 23 -349 26 l-293 3 0 412 0
412 -29 60 c-35 75 -110 145 -189 177 l-57 23 -920 2 c-517 1 -936 -3 -958 -8z
m1863 -244 c59 -31 60 -37 60 -454 l0 -380 -642 -3 -643 -3 -31 -22 c-72 -51
-69 -28 -72 -530 l-3 -453 -235 0 c-262 0 -289 5 -324 62 -20 33 -20 44 -18
881 l3 849 37 34 38 34 900 0 c786 0 905 -2 930 -15z m60 -1407 c0 -375 0
-376 -59 -415 l-34 -23 -533 0 -534 0 0 390 0 390 580 0 580 0 0 -342z m3972
-3057 c593 -127 1031 -567 1160 -1165 32 -146 32 -436 0 -583 -98 -452 -385
-823 -795 -1030 -239 -120 -554 -181 -798 -154 -222 24 -351 61 -544 156 -357
176 -618 479 -745 864 -53 159 -70 273 -70 460 0 215 26 354 101 546 190 489
627 832 1173 921 119 20 393 11 518 -15z"/>
<path d="M7830 3679 c-38 -8 -50 -20 -359 -349 -91 -96 -284 -298 -430 -449
l-265 -273 -246 252 -246 253 -57 5 c-56 4 -58 4 -97 -36 -36 -36 -40 -44 -40
-90 0 -47 4 -56 46 -104 72 -82 565 -578 585 -588 24 -13 82 -13 112 1 14 6
71 64 128 128 128 144 191 210 657 688 l372 381 0 47 c0 99 -65 153 -160 134z"/>
<path d="M6625 8911 c-23 -10 -59 -39 -82 -65 -46 -53 -61 -100 -90 -285 l-18
-115 -145 -58 c-80 -32 -150 -57 -156 -56 -7 2 -72 59 -145 127 -73 68 -148
130 -166 137 -50 21 -146 18 -196 -7 -25 -13 -114 -94 -218 -198 -180 -180
-189 -194 -189 -270 0 -43 43 -120 115 -211 37 -47 79 -102 93 -122 l24 -37
-47 -95 c-26 -52 -59 -127 -74 -168 l-27 -73 -104 -8 c-262 -18 -317 -38 -375
-131 l-30 -49 -3 -289 c-2 -189 1 -302 8 -329 16 -57 93 -134 151 -149 24 -7
109 -20 188 -29 l143 -16 32 -90 c18 -50 53 -135 79 -189 l47 -98 -33 -42
c-17 -22 -54 -68 -80 -101 -73 -90 -97 -144 -97 -212 1 -32 6 -68 13 -81 7
-12 97 -103 199 -201 171 -164 190 -179 237 -191 54 -13 107 -8 151 15 14 7
68 52 120 99 52 47 105 90 117 97 17 9 37 5 120 -29 54 -22 128 -49 164 -61
l66 -22 18 -127 c23 -163 37 -209 80 -259 66 -78 88 -83 357 -83 l236 0 53 28
c37 19 64 43 86 76 40 58 48 87 68 240 8 66 17 121 19 123 3 3 59 25 282 111
l42 15 43 -34 c24 -19 77 -64 117 -101 109 -99 199 -121 294 -72 42 22 358
328 380 368 26 46 23 130 -6 191 -13 28 -60 95 -105 150 -44 55 -81 103 -81
106 0 3 22 53 49 110 27 57 61 139 77 182 15 44 32 81 38 83 6 2 75 10 153 18
199 22 258 50 307 148 l26 52 0 285 c0 279 -1 287 -24 336 -25 54 -71 100
-123 122 -18 7 -104 18 -190 24 -87 6 -163 12 -169 14 -6 2 -21 32 -33 67 -13
34 -46 111 -73 170 l-50 106 96 126 c52 69 102 139 110 154 42 81 27 171 -39
236 -200 200 -309 299 -347 316 -56 25 -140 26 -195 0 -23 -10 -88 -62 -143
-114 -56 -53 -116 -107 -134 -121 l-32 -24 -130 50 c-71 27 -139 54 -151 59
-23 9 -27 26 -57 213 -18 110 -49 181 -98 222 -61 51 -81 55 -300 55 -175 0
-209 -3 -243 -19z m440 -1346 c33 -9 98 -35 145 -58 70 -34 102 -58 181 -137
83 -82 103 -108 142 -190 65 -133 80 -207 75 -355 -4 -100 -10 -134 -35 -208
-82 -235 -257 -402 -503 -478 -107 -34 -283 -34 -390 0 -265 82 -453 276 -526
542 -23 85 -24 260 -1 349 70 272 288 480 571 545 77 18 258 12 341 -10z"/>
<path d="M2184 4799 c-55 -13 -121 -70 -134 -117 -5 -20 -10 -89 -10 -152 0
-63 5 -132 10 -152 15 -52 78 -104 146 -119 l54 -12 0 -47 0 -47 -67 -12
c-259 -47 -524 -191 -728 -396 -442 -441 -547 -1106 -264 -1668 66 -130 142
-231 268 -357 177 -177 352 -287 567 -359 167 -56 240 -66 459 -66 181 1 211
3 311 27 675 160 1134 734 1136 1423 1 287 -78 545 -240 785 -153 227 -331
379 -585 500 -104 50 -269 102 -364 115 l-53 7 0 47 0 47 58 12 c31 6 73 23
93 36 60 41 69 73 69 244 0 139 -2 151 -23 183 -12 19 -43 45 -67 59 -45 25
-47 25 -320 27 -151 1 -293 -3 -316 -8z m344 -589 l3 -40 -58 0 -58 0 0 40 0
40 56 0 55 0 2 -40z m251 -295 c525 -135 880 -543 932 -1071 42 -431 -171
-873 -543 -1126 -310 -210 -718 -266 -1072 -147 -519 174 -869 679 -842 1214
29 581 443 1049 1017 1150 134 23 376 14 508 -20z"/>
<path d="M2432 4211 c1 -25 5 -28 43 -30 41 -2 42 -1 37 28 -4 27 -7 30 -42
29 -35 0 -39 -3 -38 -27z m37 -15 c-3 -3 -11 5 -18 17 -13 21 -12 21 5 5 10
-10 16 -20 13 -22z m28 14 c-1 -12 -5 -16 -10 -11 -5 5 -6 14 -3 20 11 16 15
13 13 -9z"/>
<path d="M2434 3700 c-53 -21 -54 -29 -54 -385 l0 -330 -54 -47 c-86 -75 -113
-167 -81 -274 32 -108 129 -178 245 -178 112 1 197 58 243 163 14 35 75 101
248 271 232 229 249 250 235 306 -12 47 -50 74 -102 74 l-48 0 -191 -191
c-161 -159 -194 -188 -204 -175 -6 8 -27 22 -46 31 -19 9 -36 24 -37 33 0 9
-2 22 -3 27 -2 6 -3 149 -4 318 l-1 309 -29 29 c-31 30 -73 37 -117 19z m56
-897 c-8 -3 -24 -10 -35 -15 -20 -9 -20 -9 -1 6 11 9 27 16 35 15 14 0 14 -1
1 -6z"/>
<path d="M1478 2814 c-57 -31 -65 -98 -18 -146 30 -30 32 -30 121 -26 85 3 92
5 115 31 42 49 22 125 -37 146 -45 16 -149 13 -181 -5z"/>
<path d="M3295 2817 c-56 -26 -71 -97 -31 -144 23 -27 28 -28 120 -28 90 0 97
2 122 26 36 36 36 92 0 128 -23 23 -35 26 -104 29 -49 1 -88 -3 -107 -11z"/>
<path d="M2416 1949 c-24 -28 -26 -38 -26 -126 0 -91 1 -96 29 -124 38 -37 97
-40 136 -6 20 17 26 35 31 83 14 139 -18 204 -100 204 -37 0 -48 -5 -70 -31z"/>
</g>
</svg>
