<?xml version="1.0" standalone="no"?>
<!DOCTYPE svg PUBLIC "-//W3C//DTD SVG 20010904//EN"
 "http://www.w3.org/TR/2001/REC-SVG-20010904/DTD/svg10.dtd">
<svg version="1.0" xmlns="http://www.w3.org/2000/svg"
 width="1024.000000pt" height="1024.000000pt" viewBox="0 0 1024.000000 1024.000000"
 preserveAspectRatio="xMidYMid meet">

<g transform="translate(0.000000,1024.000000) scale(0.100000,-0.100000)"
fill="#000000" stroke="none">
<path d="M4109 8914 c-56 -17 -113 -75 -128 -131 -7 -24 -11 -196 -11 -468 0
-236 -3 -568 -7 -737 l-6 -308 -52 0 c-76 0 -119 34 -300 236 -87 96 -179 193
-206 214 -70 55 -164 99 -234 109 -80 12 -1181 12 -1270 0 -154 -20 -315 -137
-367 -266 -21 -55 -23 -75 -28 -348 -4 -159 -7 -877 -8 -1594 l-2 -1304 -66
-70 c-129 -136 -275 -397 -343 -608 -140 -442 -95 -890 132 -1311 82 -153 172
-273 302 -404 219 -220 465 -358 780 -439 512 -131 1027 -26 1460 299 164 123
350 337 437 502 l32 61 868 -1 c762 -1 868 -3 871 -16 2 -8 -26 -47 -63 -86
-142 -154 -176 -241 -131 -339 22 -49 303 -333 376 -380 27 -18 64 -36 81 -40
51 -10 135 29 261 124 l116 86 71 -34 c39 -19 89 -39 111 -46 37 -11 40 -15
42 -51 8 -120 26 -233 44 -273 25 -57 44 -78 94 -105 38 -20 53 -21 300 -21
244 0 262 1 300 21 71 37 92 80 122 252 25 146 28 153 52 159 14 3 70 28 124
55 l98 49 81 -71 c99 -86 156 -119 229 -132 105 -18 122 -8 310 180 182 183
219 236 219 317 0 65 -25 106 -134 220 l-96 100 29 65 c17 36 38 91 48 122 16
54 19 58 48 58 63 0 273 38 316 57 55 25 105 75 120 121 15 45 6 423 -11 501
-9 41 -22 64 -54 95 -51 52 -89 63 -260 76 -71 6 -130 11 -132 13 -1 1 -16 39
-34 85 -17 45 -43 95 -56 111 -24 28 -24 30 -5 36 27 8 123 105 160 162 17 25
41 77 53 114 34 106 24 128 -125 271 l-122 116 22 129 c51 292 108 608 168
933 121 656 129 707 114 785 -21 110 -103 218 -209 274 -54 29 -78 35 -175 44
l-114 10 -3 211 -3 211 -36 75 c-49 102 -89 153 -151 195 -66 45 -149 71 -255
80 l-83 7 0 199 c0 149 -4 208 -14 233 -8 19 -90 114 -183 212 -312 330 -963
982 -997 998 -31 14 -156 16 -1253 15 -1024 0 -1225 -3 -1264 -15z m2345 -241
c3 -21 6 -232 6 -469 0 -496 0 -495 80 -567 26 -24 66 -49 88 -55 28 -9 174
-12 504 -12 l466 0 6 -22 c8 -31 6 -1526 -3 -1603 -5 -53 -9 -62 -40 -82 l-34
-23 -1657 2 c-1387 3 -1660 5 -1673 17 -16 12 -17 94 -17 996 0 540 3 1178 7
1418 l6 437 1127 0 1127 0 7 -37z m283 -145 c31 -29 204 -207 385 -395 l329
-343 -386 -2 -385 -3 0 276 c0 152 -3 331 -7 397 -3 67 -3 122 1 122 4 0 33
-24 63 -52z m727 -3927 c18 -28 38 -142 43 -246 6 -121 14 -150 40 -141 8 3
12 2 9 -3 -3 -4 7 -8 22 -9 49 -1 196 -53 295 -105 116 -61 101 -64 281 68 65
48 131 89 146 92 25 3 42 -9 143 -110 139 -138 153 -157 136 -188 -6 -12 -60
-74 -120 -137 -63 -65 -110 -123 -111 -135 -3 -47 4 -74 32 -117 38 -60 73
-140 100 -229 11 -40 29 -80 39 -90 21 -21 119 -37 282 -46 l117 -7 6 -51 c21
-195 19 -294 -8 -329 -9 -13 -62 -25 -205 -49 -148 -25 -194 -36 -198 -48 -3
-9 -9 -25 -13 -36 -5 -11 -16 -47 -25 -80 -9 -33 -42 -109 -72 -169 -58 -112
-66 -150 -40 -189 9 -12 61 -71 116 -132 56 -60 101 -114 101 -120 0 -13 -99
-118 -207 -220 l-82 -78 -53 41 c-29 23 -93 75 -143 117 -99 83 -130 92 -178
54 -58 -45 -280 -134 -361 -143 -27 -4 -36 -27 -47 -128 -6 -51 -18 -131 -28
-178 l-17 -85 -56 -5 c-32 -3 -125 -4 -208 -1 l-150 3 0 32 c0 17 -9 103 -20
191 -16 127 -24 161 -38 169 -9 6 -60 25 -112 43 -52 18 -134 53 -182 78 -48
25 -98 45 -112 45 -15 0 -47 -18 -78 -43 -110 -89 -218 -167 -244 -177 -32
-13 -36 -9 -196 162 -99 107 -100 108 -89 141 6 18 38 60 72 92 80 80 135 153
143 191 6 25 -1 48 -37 115 -24 46 -65 135 -93 198 -57 133 -55 132 -214 156
-58 10 -133 26 -166 37 l-61 20 -7 66 c-3 37 -6 110 -6 163 0 139 -6 135 210
165 195 28 196 28 225 109 22 60 100 220 126 257 11 15 26 45 34 67 13 37 12
42 -4 53 -9 7 -58 60 -108 118 -50 58 -105 118 -121 134 -29 27 -30 30 -16 51
8 13 67 69 132 126 64 57 125 112 135 122 20 20 23 19 213 -125 113 -85 123
-86 258 -14 60 32 136 63 188 76 54 14 95 31 107 44 21 22 30 79 48 288 5 68
8 77 27 81 42 8 395 7 400 -2z m-4476 -20 c525 -102 955 -488 1126 -1012 88
-270 90 -584 4 -874 -163 -556 -707 -988 -1288 -1024 -564 -35 -1059 212
-1364 682 -162 248 -226 470 -226 784 0 394 147 744 429 1023 228 226 494 364
810 420 148 26 378 26 509 1z"/>
<path d="M7052 3780 c-88 -23 -196 -83 -302 -167 -63 -50 -92 -83 -149 -168
-81 -123 -102 -175 -131 -314 -31 -154 -23 -260 31 -414 31 -90 51 -125 118
-213 118 -156 230 -244 361 -285 96 -30 348 -38 452 -15 275 61 441 195 569
461 32 66 64 144 71 175 17 76 13 260 -6 345 -21 87 -92 235 -143 296 -78 93
-203 189 -331 253 -128 65 -386 86 -540 46z"/>
<path d="M7135 1401 c-6 -5 -23 -11 -40 -14 -16 -2 56 -4 160 -4 105 0 175 2
156 4 -26 3 -31 7 -20 14 11 7 9 9 -8 9 -13 0 -23 -4 -23 -10 0 -10 -167 -5
-200 5 -9 3 -20 1 -25 -4z"/>
<path d="M2686 4385 c-16 -8 -35 -23 -42 -33 -16 -21 -19 -194 -4 -223 27 -50
118 -61 161 -18 16 16 19 33 19 128 0 89 -3 113 -17 129 -24 29 -80 37 -117
17z"/>
<path d="M3434 4016 c-28 -19 -179 -165 -336 -326 l-286 -292 -64 7 c-87 9
-183 -21 -227 -70 -58 -67 -75 -111 -75 -205 -1 -76 2 -91 29 -139 98 -177
392 -178 490 0 29 52 30 59 30 171 l-1 118 191 187 c386 381 422 419 429 457
9 48 -15 93 -59 112 -50 20 -64 18 -121 -20z"/>
<path d="M1851 4027 c-38 -12 -67 -64 -57 -102 3 -13 31 -46 61 -74 82 -74
147 -81 186 -18 29 49 25 87 -17 135 -58 69 -99 83 -173 59z"/>
<path d="M1478 3239 c-24 -9 -58 -61 -58 -90 0 -26 51 -78 88 -89 79 -22 190
-4 219 36 23 31 16 90 -12 113 -46 35 -176 52 -237 30z"/>
<path d="M3720 3223 c-44 -41 -49 -83 -13 -122 24 -27 39 -34 100 -43 88 -13
132 -6 167 27 19 17 26 34 26 60 0 78 -44 105 -170 105 -73 0 -82 -2 -110 -27z"/>
<path d="M3437 2459 c-29 -17 -48 -71 -38 -107 22 -77 98 -142 166 -142 34 0
45 5 63 30 14 18 22 44 22 69 0 34 -6 45 -47 82 -87 76 -125 92 -166 68z"/>
<path d="M2663 2166 c-27 -24 -28 -26 -28 -131 0 -105 1 -107 28 -131 39 -34
95 -33 128 2 22 23 24 35 27 133 4 108 4 108 -24 130 -37 29 -95 28 -131 -3z"/>
</g>
</svg>
