<?xml version="1.0" standalone="no"?>
<!DOCTYPE svg PUBLIC "-//W3C//DTD SVG 20010904//EN"
 "http://www.w3.org/TR/2001/REC-SVG-20010904/DTD/svg10.dtd">
<svg version="1.0" xmlns="http://www.w3.org/2000/svg"
 width="1024.000000pt" height="1024.000000pt" viewBox="0 0 1024.000000 1024.000000"
 preserveAspectRatio="xMidYMid meet">

<g transform="translate(0.000000,1024.000000) scale(0.100000,-0.100000)"
fill="#000000" stroke="none">
<path d="M6384 8500 c-121 -60 -267 -130 -325 -155 -59 -24 -192 -85 -295
-136 -104 -50 -250 -118 -324 -151 -74 -33 -143 -67 -154 -76 -31 -28 -46 -69
-46 -125 0 -71 23 -100 114 -141 39 -18 131 -61 204 -96 l132 -63 0 -357 0
-357 28 -39 c104 -144 332 -253 613 -295 125 -19 567 -16 694 4 265 42 500
157 584 284 l31 46 0 353 0 354 24 15 c22 15 181 85 192 85 3 0 4 -189 3 -420
-1 -375 1 -423 16 -446 60 -92 207 -83 258 16 15 31 17 57 12 230 -10 372 -14
566 -15 750 l0 185 -32 14 c-18 8 -98 46 -178 84 -80 38 -215 100 -300 137
-196 86 -428 191 -690 314 -280 131 -256 132 -546 -14z m465 -257 c97 -42 229
-103 293 -134 64 -32 161 -77 215 -100 186 -79 287 -131 272 -139 -27 -15
-424 -188 -584 -255 -88 -36 -202 -84 -253 -106 -51 -21 -97 -39 -102 -39 -19
0 -697 292 -883 380 l-67 32 197 95 c109 52 275 130 368 173 94 42 211 98 260
123 50 25 94 46 99 46 5 1 89 -34 185 -76z m-760 -837 c224 -102 568 -246 585
-246 10 0 68 22 130 49 61 27 194 83 296 125 102 42 202 85 222 96 20 11 40
20 43 20 3 0 4 -114 3 -252 l-3 -253 -62 -42 c-141 -94 -337 -136 -638 -135
-178 0 -323 16 -433 48 -95 28 -202 80 -245 119 l-27 26 0 249 c0 138 2 250 4
250 3 0 59 -24 125 -54z"/>
<path d="M4003 8225 c-85 -19 -155 -59 -213 -122 -62 -68 -98 -144 -108 -230
-4 -37 -8 -311 -7 -608 l0 -540 138 -3 137 -3 0 561 c0 607 -1 599 55 650 l27
25 494 3 494 3 39 57 c50 73 88 109 179 166 39 25 72 48 72 51 0 3 -280 5
-622 4 -485 0 -637 -4 -685 -14z"/>
<path d="M3530 6483 c-375 -59 -673 -323 -775 -688 -37 -132 -43 -224 -32
-448 l10 -197 -34 -63 c-28 -52 -34 -75 -37 -146 -3 -46 1 -108 8 -140 17 -80
76 -195 125 -244 31 -31 48 -62 69 -122 50 -143 138 -290 247 -410 l53 -57
-19 -35 c-42 -78 -147 -147 -307 -203 -291 -101 -544 -213 -670 -296 -171
-114 -353 -376 -397 -576 -12 -51 -29 -240 -71 -782 -27 -353 -28 -382 -13
-413 34 -71 -144 -66 2093 -64 2214 2 2042 -3 2076 63 19 36 18 47 -16 483
-56 702 -65 760 -147 918 -112 216 -238 340 -473 465 -102 54 -130 66 -405
167 -99 37 -202 79 -230 93 -50 27 -195 162 -195 181 0 6 23 36 51 67 95 105
199 286 244 422 12 39 31 66 70 103 90 85 145 215 145 344 0 82 -20 160 -52
200 l-22 28 17 161 c21 196 22 360 2 444 -48 202 -221 390 -427 463 -58 20
-90 39 -121 69 -93 92 -280 179 -439 205 -84 14 -265 18 -328 8z m294 -279
c116 -30 251 -102 322 -173 17 -16 60 -41 96 -54 94 -34 155 -72 224 -141 66
-66 96 -129 112 -231 l9 -56 -31 6 c-78 16 -154 66 -275 180 -67 63 -128 115
-136 115 -7 0 -62 -28 -122 -62 -59 -34 -163 -88 -230 -120 -163 -80 -210 -87
-534 -88 l-257 0 13 68 c30 154 120 322 219 409 75 66 233 139 336 156 63 11
197 6 254 -9z m495 -849 c36 -18 98 -42 138 -54 57 -17 70 -25 67 -39 -2 -9
-17 -141 -34 -292 -51 -460 -102 -605 -270 -763 -81 -77 -132 -109 -228 -141
-158 -54 -275 -54 -433 -1 -91 31 -150 67 -225 137 -98 92 -154 195 -203 370
-14 51 -101 664 -101 714 0 1 125 4 278 6 l277 3 120 35 c71 20 174 61 254
100 l134 66 80 -54 c45 -29 110 -68 146 -87z m-799 -1565 c135 -36 441 -33
550 5 48 17 54 15 76 -27 l16 -31 -84 -81 c-76 -75 -203 -167 -286 -210 l-33
-17 -122 90 c-67 49 -152 120 -189 158 l-67 68 20 33 c24 38 22 37 119 12z
m-567 -357 c-15 -162 39 -497 132 -817 44 -153 147 -409 249 -617 31 -62 56
-114 56 -116 0 -1 -171 -4 -380 -5 l-380 -3 0 245 c0 275 -4 296 -71 332 -43
23 -73 23 -127 -2 -68 -31 -72 -49 -72 -330 l0 -240 -206 0 -207 0 6 53 c7 58
24 228 62 615 30 301 40 341 126 469 113 168 192 220 549 363 113 45 216 88
230 96 38 20 39 19 33 -43z m1363 -30 c-8 -102 -36 -263 -46 -263 -11 0 -180
149 -180 158 0 19 203 189 229 192 2 0 1 -39 -3 -87z m380 41 c49 -19 143 -56
209 -81 174 -66 312 -143 385 -217 104 -106 176 -226 204 -341 25 -98 95 -878
82 -910 -4 -13 -36 -15 -196 -15 l-190 0 0 251 0 251 -38 39 c-21 21 -50 41
-65 44 -42 11 -93 -3 -125 -34 -49 -45 -55 -89 -48 -333 l7 -218 -382 0 c-301
0 -380 3 -376 13 3 6 36 77 72 157 217 470 332 895 352 1303 3 70 9 127 13
127 4 0 47 -16 96 -36z m-1298 -87 c73 -58 77 -47 -48 -154 -66 -57 -75 -62
-81 -45 -6 17 -28 152 -44 276 l-6 38 58 -32 c32 -18 86 -55 121 -83z m203
-374 c16 -49 6 -161 -26 -291 -13 -56 -34 -155 -45 -219 -12 -65 -23 -119 -25
-122 -13 -13 -165 360 -180 442 -7 34 -5 37 61 89 81 63 186 138 196 138 3 0
12 -17 19 -37z m454 -33 c39 -26 93 -66 121 -88 l52 -41 -34 -106 c-40 -127
-103 -287 -132 -334 -24 -40 -21 -49 -62 154 -58 280 -61 300 -63 365 -2 68
15 116 36 104 7 -4 44 -29 82 -54z"/>
<path d="M7750 6373 c-19 -2 -109 -15 -200 -29 -238 -37 -280 -60 -288 -159
-7 -80 24 -124 108 -153 17 -6 54 -3 115 9 49 10 90 17 91 16 2 -1 -36 -49
-83 -107 -47 -58 -144 -181 -216 -274 -72 -93 -150 -189 -173 -215 l-42 -46
-78 0 c-45 -1 -110 -9 -149 -19 -67 -18 -72 -18 -96 -2 -23 15 -27 25 -32 95
-14 178 -107 301 -262 346 -133 39 -271 1 -362 -99 -72 -79 -88 -132 -88 -297
l0 -135 -91 -110 c-126 -151 -188 -207 -221 -201 -32 6 -180 -26 -238 -52 -63
-28 -139 -102 -166 -164 -20 -43 -24 -69 -24 -152 0 -91 3 -105 30 -158 35
-70 120 -152 174 -168 63 -19 237 -7 292 20 156 75 230 244 185 420 -13 51
-14 67 -4 80 24 30 196 236 229 274 32 35 36 37 67 28 18 -6 70 -9 115 -8 72
2 92 7 161 40 43 20 79 37 81 37 2 0 -1 -17 -6 -37 -13 -59 -11 -91 10 -110
11 -11 23 -44 29 -82 19 -104 74 -175 182 -232 36 -18 65 -24 148 -27 95 -4
106 -2 158 23 70 34 150 114 180 179 34 73 34 202 0 287 l-25 60 132 156 c73
86 187 221 255 301 l122 144 0 -71 c0 -109 33 -165 110 -190 62 -19 145 20
170 80 17 40 7 566 -11 601 -19 38 -62 79 -98 94 -31 13 -107 16 -191 7z
m-1335 -817 c54 -54 39 -133 -31 -162 -29 -12 -39 -12 -66 -1 -48 20 -63 44
-62 95 1 36 6 50 28 69 37 32 98 32 131 -1z m591 -424 c21 -14 44 -57 44 -81
0 -14 -12 -38 -27 -53 -21 -22 -36 -28 -68 -28 -76 0 -115 78 -72 144 15 22
25 26 65 26 26 0 52 -4 58 -8z m-1348 -439 c51 -45 30 -118 -38 -129 -96 -15
-145 79 -66 127 39 24 78 24 104 2z"/>
<path d="M8220 4871 l0 -858 -23 -34 c-12 -18 -40 -44 -62 -56 l-39 -22 -1466
-5 c-806 -3 -1502 -8 -1547 -11 -62 -5 -83 -10 -83 -21 0 -8 8 -14 18 -14 30
0 259 -68 335 -100 42 -17 95 -50 127 -77 l54 -48 522 0 c287 0 525 -2 528 -5
3 -3 6 -124 8 -268 l3 -262 -203 0 c-225 0 -253 -6 -285 -59 -21 -36 -22 -102
-2 -141 32 -61 16 -60 676 -60 l601 0 34 34 c31 31 34 39 34 93 0 65 -15 95
-60 118 -23 12 -76 15 -272 15 l-243 0 0 265 0 265 545 0 c667 1 725 5 826 54
96 48 166 117 207 203 l32 68 3 893 2 892 -135 0 -135 0 0 -859z"/>
</g>
</svg>
