<?xml version="1.0" standalone="no"?>
<!DOCTYPE svg PUBLIC "-//W3C//DTD SVG 20010904//EN"
 "http://www.w3.org/TR/2001/REC-SVG-20010904/DTD/svg10.dtd">
<svg version="1.0" xmlns="http://www.w3.org/2000/svg"
 width="1024.000000pt" height="1024.000000pt" viewBox="0 0 1024.000000 1024.000000"
 preserveAspectRatio="xMidYMid meet">

<g transform="translate(0.000000,1024.000000) scale(0.100000,-0.100000)"
fill="#000000" stroke="none">
<path d="M2503 8315 c-158 -34 -322 -165 -396 -316 -72 -146 -67 55 -67 -2714
0 -2770 -5 -2568 67 -2714 51 -104 152 -205 253 -254 146 -71 32 -67 1689 -67
l1495 0 -75 51 c-85 58 -162 121 -234 191 l-50 48 -1310 2 -1310 3 -57 28
c-61 30 -105 74 -140 140 l-23 42 -3 2510 c-3 2854 -11 2577 86 2675 99 99
-90 90 1916 90 l1761 0 60 -29 c38 -17 77 -46 102 -75 77 -88 73 -26 73 -1089
l0 -950 68 6 c37 4 104 7 150 7 l82 0 0 953 c0 818 -2 961 -15 1012 -57 225
-240 404 -460 450 -100 21 -3565 21 -3662 0z"/>
<path d="M2750 7677 c-13 -7 -35 -28 -47 -46 l-23 -34 0 -511 c0 -476 1 -514
18 -545 10 -19 34 -43 53 -53 32 -17 102 -18 1592 -18 1721 0 1596 -5 1637 63
19 31 20 54 20 545 0 566 1 553 -63 592 -31 20 -62 20 -1597 20 -1232 0 -1570
-3 -1590 -13z m2950 -597 l0 -310 -1362 0 -1363 0 0 310 0 310 1363 0 1362 0
0 -310z"/>
<path d="M2770 6128 c-56 -29 -87 -74 -95 -141 -4 -29 -5 -176 -3 -327 3 -256
4 -277 24 -310 11 -19 35 -45 54 -57 33 -23 37 -23 370 -23 333 0 337 0 370
23 19 12 43 38 54 57 20 33 21 50 21 345 0 171 -3 322 -8 337 -11 42 -64 96
-105 108 -21 6 -164 10 -337 10 -292 0 -302 -1 -345 -22z m500 -427 l0 -140
-146 -3 c-80 -2 -148 -1 -150 1 -2 2 -4 67 -4 143 l0 138 150 0 150 0 0 -139z"/>
<path d="M4009 6141 c-45 -14 -80 -43 -100 -82 -18 -35 -19 -61 -19 -349 0
-340 1 -350 59 -405 l32 -30 352 0 c336 0 353 1 379 20 15 11 36 37 48 57 20
36 21 47 18 365 -4 459 28 427 -428 430 -173 1 -327 -2 -341 -6z m481 -441 l0
-140 -150 0 -150 0 0 140 0 140 150 0 150 0 0 -140z"/>
<path d="M5227 6136 c-45 -17 -73 -40 -96 -81 -14 -26 -16 -75 -19 -337 -3
-317 1 -361 38 -408 l19 -25 63 66 c35 36 89 88 121 116 l57 52 0 160 0 161
145 0 145 0 0 -70 c0 -38 2 -70 5 -70 3 0 25 10 48 22 23 12 89 38 146 58
l104 37 -2 108 c-2 112 -11 144 -49 178 -46 42 -84 46 -392 46 -223 0 -304 -3
-333 -13z"/>
<path d="M6368 5669 c-789 -102 -1403 -722 -1508 -1525 -18 -137 -8 -442 20
-569 136 -633 564 -1120 1162 -1320 598 -200 1241 -78 1723 327 418 351 659
923 616 1461 -22 260 -71 439 -186 672 -254 515 -750 866 -1338 950 -111 16
-380 18 -489 4z m449 -300 c266 -36 530 -149 733 -314 171 -138 296 -297 396
-500 111 -229 150 -420 141 -690 -14 -383 -153 -702 -426 -976 -210 -210 -445
-339 -733 -400 -136 -29 -381 -36 -526 -15 -600 89 -1065 505 -1216 1088 -98
378 -27 825 182 1152 172 269 436 479 733 584 78 28 237 66 314 75 68 9 329 6
402 -4z"/>
<path d="M6541 5033 c-56 -29 -73 -62 -79 -147 -4 -72 -6 -77 -31 -82 -58 -14
-161 -78 -219 -136 -76 -76 -127 -174 -149 -285 -15 -76 -15 -89 0 -165 49
-250 226 -400 516 -438 153 -20 231 -63 275 -152 42 -84 31 -165 -33 -239 -70
-83 -200 -112 -316 -72 -66 22 -137 94 -162 163 -10 29 -31 68 -48 87 -56 65
-151 63 -202 -4 -24 -31 -28 -46 -28 -103 0 -166 170 -364 361 -420 l40 -12
-4 -54 c-12 -142 92 -229 211 -176 60 27 77 60 77 155 l0 74 43 12 c224 67
391 305 374 536 -14 193 -151 369 -347 444 -41 16 -124 37 -185 46 -115 18
-171 39 -218 84 -70 64 -89 169 -48 255 44 89 126 135 241 136 133 0 227 -65
275 -191 36 -93 79 -129 154 -129 53 0 106 45 121 102 31 112 -84 323 -225
414 -28 18 -81 43 -118 56 l-67 23 0 68 c0 108 -36 153 -128 163 -34 4 -57 0
-81 -13z"/>
<path d="M2759 4917 c-18 -12 -44 -38 -56 -56 -23 -34 -23 -38 -23 -358 0
-360 0 -359 67 -410 l36 -28 338 0 c327 0 338 1 366 21 15 11 38 36 51 54 22
33 22 37 22 360 0 324 0 327 -23 361 -12 18 -38 44 -56 56 -34 23 -37 23 -361
23 -324 0 -327 0 -361 -23z m511 -419 l0 -143 -147 2 -148 2 -3 140 -3 141
151 0 150 0 0 -142z"/>
<path d="M3969 4917 c-18 -12 -44 -38 -56 -56 l-23 -34 2 -928 c3 -923 3 -928
24 -956 11 -15 36 -38 54 -50 33 -23 37 -23 362 -23 364 0 373 1 419 63 19 26
24 47 27 109 4 68 0 88 -32 178 -162 457 -165 933 -7 1397 41 121 47 149 41
184 -9 49 -34 85 -80 117 -33 22 -37 22 -365 22 -329 0 -332 0 -366 -23z m511
-1001 c0 -398 3 -731 6 -740 5 -14 -11 -16 -145 -16 l-151 0 0 740 0 740 145
0 145 0 0 -724z"/>
<path d="M2744 3712 c-68 -49 -69 -58 -69 -412 0 -300 1 -317 21 -350 11 -19
35 -45 54 -57 33 -23 37 -23 369 -23 318 0 338 1 369 20 18 11 41 34 52 52 19
31 20 51 20 356 0 358 -1 367 -63 413 l-32 24 -340 3 -341 3 -40 -29z m526
-412 l0 -140 -150 0 -150 0 0 140 0 140 150 0 150 0 0 -140z"/>
</g>
</svg>
