<?xml version="1.0" standalone="no"?>
<!DOCTYPE svg PUBLIC "-//W3C//DTD SVG 20010904//EN"
 "http://www.w3.org/TR/2001/REC-SVG-20010904/DTD/svg10.dtd">
<svg version="1.0" xmlns="http://www.w3.org/2000/svg"
 width="1024.000000pt" height="1024.000000pt" viewBox="0 0 1024.000000 1024.000000"
 preserveAspectRatio="xMidYMid meet">

<g transform="translate(0.000000,1024.000000) scale(0.100000,-0.100000)"
fill="#000000" stroke="none">
<path d="M3840 8614 c-185 -43 -330 -168 -403 -346 l-22 -53 -3 -1312 -2
-1313 150 0 150 0 0 1268 c0 1213 1 1269 19 1307 21 46 71 99 115 123 29 16
133 17 1279 20 l1247 2 0 -417 c0 -446 2 -469 51 -570 38 -76 135 -168 221
-207 40 -18 89 -36 108 -40 19 -4 139 -7 265 -6 127 0 307 -2 400 -6 l170 -7
-1 -591 c-1 -325 1 -765 4 -978 l5 -387 51 -11 c28 -6 93 -25 144 -42 51 -16
95 -28 97 -26 2 2 5 518 6 1146 l1 1142 -153 159 c-208 218 -1139 1135 -1167
1150 -33 18 -2654 14 -2732 -5z m3432 -1119 c58 -55 106 -103 107 -107 0 -5
-130 -8 -289 -8 -270 0 -294 1 -329 20 -22 11 -49 31 -60 46 -20 26 -21 37
-21 334 l0 308 243 -247 c134 -135 291 -291 349 -346z"/>
<path d="M4491 6643 c-48 -25 -73 -63 -78 -120 -5 -56 17 -105 60 -137 28 -21
33 -21 1170 -24 760 -2 1154 0 1177 7 58 17 93 61 98 124 5 64 -13 105 -60
139 l-33 23 -1150 3 c-1081 2 -1152 1 -1184 -15z"/>
<path d="M4493 5851 c-108 -49 -109 -209 -2 -263 32 -17 109 -18 1177 -18
1035 0 1147 2 1178 16 100 48 110 180 18 250 l-37 29 -1146 2 c-1108 2 -1147
2 -1188 -16z"/>
<path d="M1577 5682 c-15 -9 -37 -35 -48 -58 -19 -40 -19 -60 -17 -768 l3
-728 32 -28 c36 -33 88 -50 151 -50 l42 0 1 238 c1 299 6 395 23 437 20 46 81
111 135 143 46 27 46 27 331 35 157 4 393 7 525 5 l240 -3 53 -29 c62 -35 85
-59 181 -195 l72 -101 340 0 340 0 -3 303 c-3 283 -4 305 -24 348 -13 28 -35
54 -56 67 -42 26 -121 28 -547 12 -549 -20 -589 -20 -616 2 -14 11 -76 83
-139 161 -62 78 -127 154 -142 169 -61 57 -70 58 -476 58 -335 -1 -376 -2
-401 -18z"/>
<path d="M4506 5060 c-120 -36 -127 -227 -10 -276 27 -11 156 -14 684 -15 611
0 653 1 682 18 105 61 101 211 -7 263 -40 19 -61 20 -681 19 -351 0 -652 -5
-668 -9z"/>
<path d="M7106 4910 c-158 -18 -350 -76 -502 -150 -332 -164 -603 -470 -718
-814 -65 -195 -91 -454 -67 -664 49 -415 289 -800 646 -1035 249 -164 496
-237 801 -237 435 0 795 157 1082 472 153 168 254 348 316 563 46 162 60 282
53 468 -10 292 -87 534 -246 771 -197 296 -492 502 -850 593 -119 30 -155 35
-286 38 -82 2 -185 0 -229 -5z m265 -291 c235 -23 433 -102 615 -244 220 -173
377 -429 430 -705 21 -111 18 -353 -5 -460 -105 -470 -495 -829 -982 -900
-127 -19 -321 -8 -439 23 -355 96 -628 317 -785 636 -90 183 -124 363 -106
566 27 303 144 554 355 759 186 181 451 300 725 326 42 4 79 8 82 9 4 0 53 -4
110 -10z"/>
<path d="M7840 4001 c-19 -11 -95 -84 -169 -163 -387 -412 -565 -598 -572
-596 -4 2 -71 66 -150 143 -206 201 -224 215 -282 215 -90 0 -137 -46 -137
-135 0 -25 7 -61 15 -81 20 -47 417 -445 472 -473 52 -26 118 -27 159 -2 44
27 827 870 852 918 23 43 11 119 -26 155 -39 40 -109 48 -162 19z"/>
<path d="M2054 4640 c-16 -11 -41 -41 -55 -67 l-24 -48 3 -685 c4 -775 -3
-714 88 -760 32 -16 71 -26 114 -28 l65 -4 3 279 c2 153 6 300 8 327 7 84 63
159 158 209 38 20 62 22 371 30 444 11 718 5 767 -16 59 -27 104 -72 195 -199
l85 -118 314 0 314 0 2 28 c5 94 -5 573 -13 599 -13 40 -75 97 -124 113 -30
10 -95 10 -309 1 -149 -6 -386 -14 -526 -17 l-255 -6 -34 23 c-19 13 -75 78
-125 144 -101 133 -167 187 -247 204 -30 7 -188 11 -397 11 -328 0 -349 -1
-378 -20z"/>
<path d="M2568 3630 c-15 -11 -37 -41 -50 -68 l-23 -47 0 -660 c0 -363 3 -677
8 -698 4 -20 22 -53 38 -72 60 -68 12 -66 1215 -63 l1079 3 41 23 c46 27 74
68 85 126 4 23 8 252 9 510 l1 469 -26 53 c-21 42 -34 56 -73 74 l-47 23 -550
-7 c-353 -5 -560 -4 -576 3 -16 5 -70 66 -132 146 -58 75 -124 151 -148 168
l-43 32 -391 3 c-381 3 -392 2 -417 -18z"/>
<path d="M5314 3111 c-2 -2 -4 -69 -4 -147 l0 -143 208 -3 c114 -2 208 -3 209
-2 2 0 -13 43 -31 95 -19 52 -39 119 -46 149 l-12 55 -160 0 c-88 0 -162 -2
-164 -4z"/>
</g>
</svg>
