<?xml version="1.0" standalone="no"?>
<!DOCTYPE svg PUBLIC "-//W3C//DTD SVG 20010904//EN"
 "http://www.w3.org/TR/2001/REC-SVG-20010904/DTD/svg10.dtd">
<svg version="1.0" xmlns="http://www.w3.org/2000/svg"
 width="1024.000000pt" height="1024.000000pt" viewBox="0 0 1024.000000 1024.000000"
 preserveAspectRatio="xMidYMid meet">

<g transform="translate(0.000000,1024.000000) scale(0.100000,-0.100000)"
fill="#000000" stroke="none">
<path d="M5558 9210 c-14 -11 -88 -97 -164 -192 -77 -95 -222 -274 -324 -398
-101 -124 -205 -250 -230 -281 -25 -31 -63 -77 -85 -104 -48 -58 -54 -110 -17
-147 21 -22 32 -23 189 -26 l166 -3 -7 -104 c-14 -217 -73 -489 -153 -705 -20
-52 -40 -106 -45 -119 -9 -24 -14 -20 -136 100 -193 190 -228 219 -269 219
-43 0 -61 -10 -148 -79 -38 -31 -104 -81 -145 -112 l-75 -55 -80 42 c-44 24
-110 53 -148 65 -37 12 -69 25 -72 28 -2 4 -18 95 -34 202 -32 202 -43 231
-92 256 -35 18 -816 12 -845 -7 -39 -24 -48 -54 -79 -254 l-30 -199 -90 -36
c-49 -20 -116 -51 -148 -70 -50 -29 -60 -31 -76 -19 -10 7 -74 56 -141 108
-67 52 -134 103 -149 112 -30 20 -72 23 -104 7 -37 -19 -575 -561 -588 -592
-18 -42 -7 -64 121 -242 l113 -156 -40 -82 c-22 -45 -48 -107 -58 -137 -10
-30 -20 -58 -24 -62 -3 -4 -78 -19 -166 -33 -199 -32 -222 -39 -246 -79 -18
-29 -19 -54 -19 -438 l0 -406 26 -31 c31 -37 54 -43 249 -71 82 -12 153 -24
156 -26 4 -2 10 -16 14 -31 3 -16 31 -81 62 -145 l55 -116 -121 -153 c-67 -84
-124 -163 -127 -176 -4 -12 -3 -35 1 -50 7 -29 495 -529 569 -584 73 -54 98
-44 305 121 l114 91 91 -42 c50 -23 120 -52 156 -64 l65 -22 23 -144 c35 -221
42 -248 67 -277 l23 -27 411 -3 c456 -3 459 -3 486 62 7 17 25 108 40 201 14
94 27 174 28 178 1 5 29 18 62 29 33 11 102 40 153 64 l92 44 153 -115 c158
-120 195 -137 246 -115 42 17 588 569 596 603 4 15 5 37 1 50 -3 12 -59 91
-125 175 l-120 154 38 76 c21 42 51 110 66 149 25 65 31 73 59 78 17 2 83 12
146 20 63 9 139 23 167 31 82 23 83 25 83 342 0 256 -1 269 -20 290 -41 44
-116 36 -139 -14 -7 -16 -11 -102 -11 -244 l0 -218 -27 -6 c-16 -3 -86 -13
-158 -21 -152 -18 -191 -29 -210 -58 -8 -12 -30 -69 -50 -127 -20 -58 -56
-143 -81 -189 -26 -50 -44 -97 -44 -116 0 -34 31 -79 179 -266 l60 -77 -225
-221 c-124 -121 -230 -221 -235 -221 -5 0 -56 35 -112 78 -217 166 -220 167
-350 98 -45 -25 -136 -65 -202 -90 -75 -29 -126 -54 -137 -68 -17 -23 -25 -59
-56 -268 l-18 -115 -317 -3 c-174 -1 -317 -1 -317 0 -2 39 -61 361 -69 376
-17 31 -45 47 -136 77 -44 15 -131 51 -194 81 -64 30 -127 54 -145 54 -35 0
-94 -40 -244 -162 l-85 -69 -41 38 c-22 21 -127 123 -233 227 l-192 189 45 56
c110 135 194 251 199 274 5 18 -9 55 -53 143 -33 66 -70 151 -83 189 -29 92
-45 122 -71 136 -16 9 -318 58 -360 59 -5 0 -8 145 -8 323 l0 323 133 18 c193
25 232 34 254 59 11 12 37 72 57 132 21 61 59 149 87 197 27 49 49 96 49 107
0 21 -29 64 -154 227 l-89 116 224 224 c123 123 226 224 229 224 3 0 55 -38
115 -85 174 -136 194 -147 240 -142 22 3 71 23 109 45 38 23 103 53 145 68 42
15 100 36 129 47 29 10 59 29 68 42 8 13 26 97 40 187 13 89 27 175 30 191 l6
27 313 0 313 0 6 -27 c3 -16 17 -104 31 -196 14 -92 30 -176 37 -186 6 -11 58
-35 122 -57 61 -21 157 -63 214 -91 56 -29 115 -53 131 -53 34 0 82 31 230
150 l114 91 161 -160 161 -161 -29 -52 c-46 -84 -144 -224 -235 -338 -84 -105
-270 -310 -280 -310 -3 0 -22 24 -41 53 -46 68 -161 189 -230 241 -171 131
-361 204 -587 228 -576 60 -1122 -337 -1228 -893 -74 -390 28 -756 286 -1033
192 -205 430 -321 717 -348 479 -45 920 199 1132 627 60 120 96 251 112 403
l12 113 95 56 c409 239 758 564 1033 963 272 394 450 818 542 1290 l23 115
164 5 c181 6 204 12 217 63 13 47 0 73 -86 178 -43 52 -195 238 -337 414 -330
409 -390 480 -417 499 -30 22 -70 20 -100 -4z m253 -462 c107 -133 242 -300
302 -372 l107 -131 -110 -5 c-151 -7 -154 -10 -185 -196 -64 -392 -190 -743
-388 -1083 -263 -451 -589 -793 -1017 -1068 -298 -191 -578 -301 -913 -358
-178 -30 -188 -30 -117 -3 98 38 353 172 450 237 381 257 720 611 954 996 214
353 351 810 381 1271 12 172 -16 204 -179 204 l-96 0 283 348 c156 191 292
359 302 374 11 15 23 28 26 28 3 0 93 -109 200 -242z m-2278 -2192 c121 -31
272 -108 365 -186 76 -65 212 -225 212 -252 0 -14 -276 -214 -388 -282 -206
-124 -457 -233 -661 -286 -60 -16 -91 -49 -91 -97 0 -93 42 -106 330 -107 161
0 245 4 335 18 151 23 352 74 475 121 143 55 132 55 124 4 -52 -343 -284 -643
-587 -760 -150 -57 -188 -64 -372 -63 -207 1 -276 16 -444 100 -239 120 -406
333 -488 624 -14 52 -18 100 -18 235 0 189 16 271 80 411 67 148 181 287 312
380 111 80 289 149 433 168 89 11 286 -3 383 -28z"/>
<path d="M5897 6579 c-105 -25 -204 -104 -253 -205 l-29 -59 0 -1800 0 -1800
33 -67 c35 -71 81 -117 162 -159 l45 -24 1365 0 1365 0 57 28 c83 41 153 121
178 205 20 66 20 85 18 1832 l-3 1765 -32 67 c-34 71 -91 134 -160 175 -94 55
-44 53 -1428 52 -704 -1 -1297 -5 -1318 -10z m2648 -181 c17 -9 44 -31 62 -50
68 -70 63 73 63 -1840 0 -1671 -1 -1734 -19 -1774 -18 -40 -65 -84 -105 -98
-10 -3 -605 -6 -1323 -6 -1069 0 -1310 3 -1336 14 -44 18 -94 78 -104 123 -4
21 -8 817 -8 1769 l0 1731 30 49 c23 37 44 56 85 77 l54 27 1286 -2 c1177 -3
1288 -4 1315 -20z"/>
<path d="M6405 5509 c-4 -6 -5 -12 -2 -15 2 -3 7 2 10 11 7 17 1 20 -8 4z"/>
<path d="M6543 4933 c9 -2 23 -2 30 0 6 3 -1 5 -18 5 -16 0 -22 -2 -12 -5z"/>
<path d="M6553 4783 c9 -2 25 -2 35 0 9 3 1 5 -18 5 -19 0 -27 -2 -17 -5z"/>
<path d="M6618 4783 c7 -3 16 -2 19 1 4 3 -2 6 -13 5 -11 0 -14 -3 -6 -6z"/>
<path d="M6718 4783 c18 -2 45 -2 60 0 15 2 0 4 -33 4 -33 0 -45 -2 -27 -4z"/>
<path d="M7028 4783 c6 -2 18 -2 25 0 6 3 1 5 -13 5 -14 0 -19 -2 -12 -5z"/>
<path d="M7178 4783 c7 -3 16 -2 19 1 4 3 -2 6 -13 5 -11 0 -14 -3 -6 -6z"/>
<path d="M7833 4783 c9 -2 23 -2 30 0 6 3 -1 5 -18 5 -16 0 -22 -2 -12 -5z"/>
<path d="M7649 3953 l-24 -28 28 24 c15 14 27 26 27 28 0 8 -8 1 -31 -24z"/>
</g>
</svg>
