<?xml version="1.0" standalone="no"?>
<!DOCTYPE svg PUBLIC "-//W3C//DTD SVG 20010904//EN"
 "http://www.w3.org/TR/2001/REC-SVG-20010904/DTD/svg10.dtd">
<svg version="1.0" xmlns="http://www.w3.org/2000/svg"
 width="1024.000000pt" height="1024.000000pt" viewBox="0 0 1024.000000 1024.000000"
 preserveAspectRatio="xMidYMid meet">

<g transform="translate(0.000000,1024.000000) scale(0.100000,-0.100000)"
fill="#000000" stroke="none">
<path d="M4633 9189 c-117 -20 -222 -78 -305 -168 -95 -102 -138 -212 -138
-348 l0 -73 -217 0 c-120 0 -234 -5 -254 -10 -50 -14 -100 -49 -124 -87 l-20
-32 -471 -1 c-517 0 -519 0 -639 -63 -80 -43 -172 -136 -213 -217 -66 -133
-62 98 -62 -3190 0 -3284 -4 -3056 62 -3190 42 -87 151 -196 238 -238 130 -64
71 -62 1543 -62 l1339 0 81 -58 c261 -186 548 -304 862 -353 119 -19 428 -16
550 5 376 64 679 204 969 447 300 251 536 653 615 1049 108 544 -12 1081 -341
1523 l-58 78 0 1892 c0 2050 2 1961 -54 2079 -57 120 -163 217 -294 270 -57
23 -61 23 -549 26 -476 3 -492 3 -498 22 -9 29 -80 85 -124 98 -24 8 -121 12
-260 12 l-221 0 0 58 c-1 227 -158 440 -379 514 -64 22 -82 22 -526 24 -253 1
-483 -2 -512 -7z m1003 -296 c49 -26 110 -92 132 -142 11 -25 17 -83 21 -193
l6 -158 33 -32 32 -33 280 -3 280 -3 0 -259 0 -260 -1300 0 -1300 0 0 260 0
260 266 0 c366 0 364 -1 364 217 0 158 14 212 71 277 40 45 78 71 129 87 14 4
232 7 485 6 452 -2 461 -2 501 -24z m-2084 -977 l3 -295 30 -31 c16 -16 46
-35 66 -40 24 -7 548 -9 1492 -8 1454 3 1456 3 1484 24 60 44 63 61 63 367 l0
278 443 -3 c491 -3 477 -2 555 -72 22 -20 50 -60 63 -89 l24 -52 3 -1757 c1
-967 0 -1758 -2 -1758 -2 0 -54 34 -115 75 -259 175 -589 295 -884 321 l-78 6
3 57 3 56 215 5 c239 6 243 7 297 76 l28 37 3 184 c3 176 2 186 -21 236 -32
70 -74 117 -139 153 l-53 29 -460 0 -460 0 -49 -24 c-63 -31 -116 -84 -147
-147 -22 -45 -24 -63 -27 -214 -4 -179 3 -220 44 -270 45 -53 54 -55 284 -60
l215 -5 0 -55 0 -55 -105 -12 c-438 -53 -879 -287 -1182 -627 -514 -578 -629
-1394 -294 -2081 55 -112 151 -266 214 -343 l35 -42 -1214 2 -1214 3 -52 24
c-64 28 -114 81 -139 147 -18 48 -19 130 -19 3049 l0 3000 21 45 c37 80 104
133 187 150 23 4 230 8 459 9 l417 1 3 -294z m3426 -2558 l3 -88 -406 0 -405
0 0 90 0 90 403 -2 402 -3 3 -87z m-258 -749 c679 -63 1213 -484 1420 -1120
100 -304 99 -682 -1 -995 -151 -473 -507 -851 -969 -1029 -100 -39 -252 -79
-365 -95 -102 -15 -334 -15 -445 0 -537 72 -1014 414 -1250 895 -134 274 -177
477 -167 782 9 250 54 437 157 649 252 518 766 869 1340 914 143 11 156 11
280 -1z"/>
<path d="M3269 6861 c-34 -34 -39 -44 -39 -86 0 -63 28 -108 80 -129 37 -14
210 -16 1805 -16 1600 0 1768 2 1805 16 75 30 105 103 72 178 -37 83 140 76
-1883 76 l-1801 0 -39 -39z"/>
<path d="M3269 6081 c-35 -34 -39 -44 -39 -87 0 -61 25 -105 73 -127 32 -16
131 -17 1174 -17 1063 0 1140 1 1173 18 73 36 100 123 60 189 -41 67 42 63
-1241 63 l-1161 0 -39 -39z"/>
<path d="M3330 5340 c-20 -5 -49 -24 -67 -44 -60 -65 -40 -170 40 -207 40 -18
75 -19 677 -19 585 0 638 1 669 18 100 50 105 181 10 237 -33 19 -53 20 -664
22 -346 1 -646 -3 -665 -7z"/>
<path d="M6505 4156 c-17 -7 -40 -26 -50 -42 -19 -27 -20 -51 -22 -453 l-3
-424 -40 -34 c-22 -19 -52 -56 -68 -81 -24 -41 -27 -57 -27 -132 0 -68 5 -93
22 -125 26 -48 85 -106 133 -130 42 -22 157 -31 198 -17 29 10 39 4 259 -160
125 -94 242 -179 258 -189 62 -39 160 -12 192 51 23 45 16 106 -14 140 -16 17
-131 108 -258 203 l-230 172 3 37 c2 21 -4 63 -13 95 -13 46 -29 68 -81 121
l-64 64 0 418 c0 408 0 418 -21 444 -42 53 -111 70 -174 42z"/>
</g>
</svg>
